<!DOCTYPE svg PUBLIC "-//W3C//DTD SVG 1.1//EN" "http://www.w3.org/Graphics/SVG/1.1/DTD/svg11.dtd">
<!-- Uploaded to: SVG Repo, www.svgrepo.com, Transformed by: SVG Repo Mixer Tools -->
<svg width="800px" height="800px" viewBox="0 0 24 24" fill="none" xmlns="http://www.w3.org/2000/svg" stroke="#ffffff">
<g id="SVGRepo_bgCarrier" stroke-width="0"/>
<g id="SVGRepo_tracerCarrier" stroke-linecap="round" stroke-linejoin="round"/>
<g id="SVGRepo_iconCarrier">
<path d="M18.6 3H5.4A2.4 2.4 0 0 0 3 5.4v15.2A2.4 2.4 0 0 0 5.4 23h13.2a2.4 2.4 0 0 0 2.4-2.4V5.4A2.4 2.4 0 0 0 18.6 3Z" fill="#ffffff" fill-opacity=".16" stroke="#ffffff" stroke-width="1.5" stroke-miterlimit="10"/>
<path d="M7 14h10M7 11h10M7 17h6" stroke="#ffffff" stroke-width="1.5" stroke-miterlimit="10" stroke-linecap="round"/>
<path d="M15.2 6a.8.8 0 0 0 .8-.8V3H8v2.2a.8.8 0 0 0 .8.8h6.4Z" fill="#ffffff"/>
<path d="M16 3v2.2a.8.8 0 0 1-.8.8H8.8a.8.8 0 0 1-.8-.8V3" stroke="#ffffff" stroke-width="1.5" stroke-miterlimit="10" stroke-linecap="round"/>
<path d="M18.6 3H5.4A2.4 2.4 0 0 0 3 5.4v15.2A2.4 2.4 0 0 0 5.4 23h13.2a2.4 2.4 0 0 0 2.4-2.4V5.4A2.4 2.4 0 0 0 18.6 3Z" stroke="#ffffff" stroke-width="1.5" stroke-miterlimit="10"/>
<path d="M14 3a2 2 0 1 0-4 0" stroke="#ffffff" stroke-width="1.5" stroke-miterlimit="10" stroke-linecap="round"/>
</g>
</svg>