<svg width="2148" height="1389" viewBox="0 0 2148 1389" fill="none" xmlns="http://www.w3.org/2000/svg">
<g clip-path="url(#clip0_66_94)">
<rect width="2148" height="1389" fill="white"/>
<path d="M140.725 323.865C128.059 297.902 111.497 274.029 91.6122 253.074L91.5862 253.044C71.6116 232.031 48.5251 214.215 23.1357 200.22C-2.92319 185.861 -31.1062 175.752 -60.3507 170.274C-63.9955 169.59 -67.7393 169.631 -71.3685 170.393C-74.9976 171.156 -78.441 172.626 -81.502 174.72C-84.563 176.813 -87.1817 179.489 -89.2085 182.595C-91.2354 185.7 -92.6307 189.175 -93.3148 192.819C-93.9989 196.464 -93.9584 200.208 -93.1957 203.837C-92.4329 207.466 -90.9628 210.91 -88.8692 213.971C-86.7757 217.032 -84.0998 219.65 -80.9942 221.677C-77.8887 223.704 -74.4143 225.099 -70.7695 225.783C-47.4186 230.168 -24.9146 238.242 -4.1022 249.702C36.6905 272.193 69.5399 306.735 89.9533 348.606C91.5779 351.939 93.8431 354.921 96.6198 357.379C99.3964 359.837 102.63 361.724 106.136 362.933C109.642 364.142 113.352 364.648 117.053 364.423C120.755 364.198 124.376 363.246 127.71 361.621C131.044 359.997 134.025 357.731 136.483 354.955C138.941 352.178 140.829 348.944 142.037 345.438C144.478 338.358 144.006 330.597 140.725 323.865Z" fill="url(#paint0_linear_66_94)"/>
<path d="M166.125 388.982C166.616 389.903 166.721 390.981 166.417 391.979C166.114 392.977 165.426 393.814 164.505 394.305L136.733 409.116C135.813 409.607 134.734 409.712 133.736 409.409C132.738 409.105 131.901 408.417 131.41 407.496L116.599 379.724L151.314 361.21L166.125 388.982ZM157.331 389.213L153.628 382.271L146.685 385.973L150.388 392.916L157.331 389.213ZM143.445 396.619L139.742 389.676L132.799 393.379L136.502 400.322L143.445 396.619ZM152.934 355.888C153.855 355.397 154.542 354.56 154.846 353.562C155.15 352.563 155.045 351.485 154.554 350.565L136.432 316.586C134.97 313.843 132.728 311.594 129.989 310.124L125.379 312.582C119.067 315.948 129.989 310.124 119.488 315.724C112.335 319.539 114.244 318.521 112.335 319.539L105.602 323.13C86.0543 333.555 94.2411 329.189 101.058 325.553C94.0672 329.281 101.058 325.553 94.2411 329.189C86.0543 333.555 94.2411 329.189 89.1917 331.882L86.0543 333.555C85.7497 336.649 86.3682 339.763 87.8316 342.506L105.953 376.484C106.444 377.405 107.281 378.093 108.279 378.397C109.277 378.701 110.355 378.595 111.276 378.104L152.934 355.888Z" fill="url(#paint1_linear_66_94)"/>
<path d="M1987.87 394.142C1999.66 429.819 2016.85 463.482 2038.82 493.963L2038.85 494.006C2060.93 524.577 2087.58 551.57 2117.87 574.041C2148.95 597.097 2183.52 615.045 2220.26 627.209C2224.84 628.727 2229.67 629.328 2234.48 628.978C2239.29 628.628 2243.99 627.334 2248.3 625.169C2252.61 623.004 2256.45 620.012 2259.61 616.363C2262.76 612.713 2265.17 608.478 2266.68 603.899C2268.2 599.32 2268.8 594.487 2268.45 589.676C2268.1 584.865 2266.81 580.17 2264.64 575.859C2262.48 571.548 2259.49 567.705 2255.84 564.551C2252.19 561.396 2247.95 558.992 2243.37 557.474C2214.04 547.747 2186.44 533.413 2161.61 515.009C2112.95 478.901 2076.64 428.643 2057.63 371.109C2056.12 366.528 2053.72 362.29 2050.57 358.637C2047.42 354.984 2043.58 351.987 2039.27 349.817C2034.96 347.647 2030.27 346.347 2025.46 345.992C2020.65 345.636 2015.81 346.231 2011.23 347.744C2006.65 349.256 2002.41 351.656 1998.76 354.806C1995.11 357.956 1992.11 361.795 1989.94 366.104C1985.56 374.805 1984.81 384.891 1987.87 394.142Z" fill="url(#paint2_linear_66_94)"/>
<path d="M1966.49 305.771C1966.01 304.499 1966.07 303.091 1966.63 301.857C1967.2 300.624 1968.23 299.665 1969.5 299.193L2007.89 284.946C2009.16 284.474 2010.57 284.527 2011.8 285.093C2013.03 285.658 2013.99 286.691 2014.46 287.964L2028.71 326.346L1980.73 344.154L1966.49 305.771ZM1977.86 307.008L1981.42 316.603L1991.02 313.042L1987.46 303.446L1977.86 307.008ZM1997.05 299.885L2000.62 309.48L2010.21 305.919L2006.65 296.323L1997.05 299.885ZM1977.72 350.733C1976.44 351.205 1975.41 352.164 1974.84 353.397C1974.28 354.631 1974.23 356.039 1974.7 357.312L1992.13 404.273C1993.54 408.064 1996.03 411.354 1999.31 413.728L2005.68 411.363C2014.4 408.125 1999.31 413.728 2013.82 408.341C2023.71 404.671 2021.07 405.651 2023.71 404.671L2033.01 401.218C2060.03 391.19 2048.71 395.39 2039.29 398.886C2048.95 395.3 2039.29 398.886 2048.71 395.39C2060.03 391.19 2048.71 395.39 2055.69 392.799L2060.03 391.19C2060.96 387.255 2060.71 383.133 2059.3 379.342L2041.87 332.381C2041.4 331.108 2040.44 330.075 2039.2 329.51C2037.97 328.944 2036.56 328.891 2035.29 329.363L1977.72 350.733Z" fill="url(#paint3_linear_66_94)"/>
<path d="M1224.99 -73.9034C1190.64 -58.6685 1158.82 -38.269 1130.64 -13.4127L1130.6 -13.3803C1102.34 11.5901 1078.09 40.7571 1058.69 73.0986C1038.79 106.293 1024.32 142.45 1015.81 180.206C1014.75 184.912 1014.63 189.781 1015.45 194.534C1016.27 199.288 1018.01 203.834 1020.59 207.912C1023.17 211.99 1026.52 215.521 1030.46 218.303C1034.4 221.085 1038.85 223.063 1043.56 224.125C1048.26 225.187 1053.13 225.311 1057.89 224.492C1062.64 223.672 1067.19 221.924 1071.26 219.348C1075.34 216.771 1078.87 213.417 1081.66 209.476C1084.44 205.535 1086.42 201.084 1087.48 196.379C1094.28 166.232 1105.84 137.361 1121.73 110.849C1152.89 58.8866 1199.35 17.8207 1254.75 -6.73241C1259.16 -8.68631 1263.14 -11.4898 1266.47 -14.9828C1269.79 -18.4758 1272.4 -22.5899 1274.14 -27.0902C1275.88 -31.5905 1276.71 -36.3889 1276.59 -41.2114C1276.47 -46.0339 1275.41 -50.7861 1273.45 -55.1966C1271.5 -59.6071 1268.7 -63.5896 1265.2 -66.9167C1261.71 -70.2437 1257.6 -72.8502 1253.1 -74.5873C1244.01 -78.0955 1233.9 -77.8495 1224.99 -73.9034Z" fill="url(#paint4_linear_66_94)"/>
<path d="M1310.84 -103.838C1312.06 -104.433 1313.47 -104.518 1314.75 -104.076C1316.03 -103.634 1317.09 -102.7 1317.68 -101.48L1335.62 -64.6773C1336.22 -63.4572 1336.3 -62.0508 1335.86 -60.7676C1335.42 -59.4844 1334.48 -58.4293 1333.26 -57.8347L1296.46 -39.8962L1274.04 -85.8995L1310.84 -103.838ZM1310.73 -92.3949L1301.52 -87.9103L1306.01 -78.7097L1315.21 -83.1943L1310.73 -92.3949ZM1319.69 -73.9936L1310.49 -69.509L1314.98 -60.3084L1324.18 -64.793L1319.69 -73.9936ZM1267.2 -88.2575C1266.6 -89.4776 1265.55 -90.4115 1264.26 -90.8537C1262.98 -91.2959 1261.57 -91.2102 1260.35 -90.6155L1215.33 -68.6679C1211.69 -66.897 1208.66 -64.0891 1206.62 -60.5986L1209.6 -54.4893C1213.67 -46.1251 1206.62 -60.5986 1213.4 -46.6827C1218.02 -37.2033 1216.79 -39.7334 1218.02 -37.2033L1222.37 -28.2814C1235 -2.37687 1229.71 -13.2258 1225.31 -22.2595C1229.82 -12.9953 1225.31 -22.2595 1229.71 -13.2258C1235 -2.37687 1229.71 -13.2258 1232.97 -6.53444L1235 -2.37687C1239.01 -1.8344 1243.08 -2.49083 1246.72 -4.26335L1291.75 -26.211C1292.97 -26.8057 1293.9 -27.8607 1294.34 -29.1439C1294.78 -30.4272 1294.7 -31.8335 1294.1 -33.0536L1267.2 -88.2575Z" fill="url(#paint5_linear_66_94)"/>
<path d="M1060.9 275.606C1060.64 276.938 1059.86 278.112 1058.74 278.87C1057.61 279.628 1056.23 279.908 1054.9 279.648L1014.72 271.802C1013.38 271.542 1012.21 270.764 1011.45 269.638C1010.69 268.512 1010.41 267.131 1010.67 265.799L1018.52 225.616L1068.75 235.423L1060.9 275.606ZM1051.84 268.622L1053.8 258.576L1043.75 256.614L1041.79 266.66L1051.84 268.622ZM1031.75 264.699L1033.71 254.653L1023.66 252.692L1021.7 262.737L1031.75 264.699ZM1074.75 231.381C1076.08 231.641 1077.46 231.361 1078.59 230.603C1079.72 229.845 1080.49 228.671 1080.75 227.339L1090.35 178.175C1091.13 174.206 1090.71 170.097 1089.16 166.365L1082.48 165.063C1073.35 163.28 1089.16 166.365 1073.96 163.399C1063.61 161.378 1066.37 161.917 1063.61 161.378L1053.87 159.476C1025.59 153.953 1037.43 156.266 1047.29 158.192C1037.18 156.217 1047.29 158.192 1037.43 156.266C1025.59 153.953 1037.43 156.266 1030.13 154.84L1025.59 153.953C1022.74 156.826 1020.81 160.476 1020.03 164.445L1010.43 213.609C1010.17 214.941 1010.45 216.322 1011.21 217.448C1011.97 218.574 1013.14 219.352 1014.48 219.612L1074.75 231.381Z" fill="url(#paint6_linear_66_94)"/>
<path d="M2178.96 1229.59C2151.59 1238.82 2114.79 1244.55 2091.46 1261.59C2068.06 1278.7 2047.76 1301.2 2030.62 1324.59C2013.04 1348.59 2010.72 1389.51 2001.54 1417.81C2000.4 1421.34 1999.96 1425.05 2000.25 1428.75C2000.54 1432.45 2001.56 1436.05 2003.24 1439.36C2004.93 1442.66 2007.25 1445.6 2010.07 1448.01C2012.89 1450.42 2016.15 1452.25 2019.68 1453.39C2023.21 1454.54 2026.93 1454.98 2030.62 1454.68C2034.32 1454.39 2037.92 1453.38 2041.23 1451.69C2044.53 1450.01 2047.47 1447.69 2049.88 1444.87C2052.29 1442.05 2054.12 1438.78 2055.26 1435.25C2062.6 1412.66 2058.43 1370.26 2072.46 1351.09C2099.99 1313.51 2151.46 1269.59 2197.66 1291.59C2201.18 1290.41 2204.43 1288.55 2207.22 1286.11C2210.01 1283.67 2212.3 1280.7 2213.95 1277.38C2215.6 1274.06 2216.57 1270.44 2216.82 1266.74C2217.07 1263.04 2216.59 1259.33 2215.41 1255.82C2214.23 1252.3 2212.36 1249.06 2209.92 1246.26C2207.48 1243.47 2204.52 1241.18 2201.2 1239.53C2194.49 1236.21 2186.06 1227.2 2178.96 1229.59Z" fill="url(#paint7_linear_66_94)"/>
<path d="M513.083 1240.51C517.164 1277.86 526.934 1314.37 542.056 1348.77L542.074 1348.82C557.28 1383.33 577.702 1415.3 602.624 1443.6C628.205 1472.64 658.257 1497.42 691.645 1516.99C695.806 1519.43 700.406 1521.03 705.185 1521.69C709.963 1522.36 714.825 1522.07 719.493 1520.86C724.161 1519.64 728.544 1517.52 732.391 1514.61C736.239 1511.7 739.475 1508.06 741.916 1503.9C744.358 1499.74 745.955 1495.14 746.618 1490.36C747.281 1485.58 746.997 1480.72 745.781 1476.05C744.565 1471.38 742.441 1467 739.532 1463.15C736.622 1459.3 732.983 1456.07 728.822 1453.63C702.167 1437.98 678.172 1418.2 657.738 1395.01C617.698 1349.54 592.685 1292.8 586.119 1232.56C585.597 1227.77 584.136 1223.12 581.818 1218.89C579.501 1214.66 576.373 1210.93 572.613 1207.9C568.853 1204.88 564.535 1202.63 559.904 1201.28C555.274 1199.92 550.423 1199.5 545.627 1200.02C540.831 1200.54 536.186 1202 531.955 1204.32C527.724 1206.64 523.991 1209.76 520.969 1213.52C514.865 1221.12 512.029 1230.82 513.083 1240.51Z" fill="url(#paint8_linear_66_94)"/>
<path d="M510.641 1149.62C510.445 1148.28 510.79 1146.91 511.601 1145.83C512.413 1144.74 513.623 1144.02 514.966 1143.82L555.478 1137.91C556.822 1137.71 558.187 1138.06 559.276 1138.87C560.364 1139.68 561.085 1140.89 561.281 1142.23L567.193 1182.75L516.552 1190.13L510.641 1149.62ZM521.508 1153.21L522.986 1163.34L533.114 1161.86L531.636 1151.73L521.508 1153.21ZM541.764 1150.25L543.242 1160.38L553.37 1158.9L551.892 1148.77L541.764 1150.25ZM512.227 1195.94C510.884 1196.13 509.674 1196.86 508.863 1197.94C508.052 1199.03 507.706 1200.4 507.902 1201.74L515.135 1251.31C515.718 1255.31 517.473 1259.05 520.178 1262.05L526.904 1261.07C536.111 1259.73 520.178 1262.05 535.497 1259.82C545.932 1258.3 543.147 1258.7 545.932 1258.3L555.753 1256.86C584.269 1252.7 572.327 1254.44 562.382 1255.9C572.58 1254.41 562.382 1255.9 572.327 1254.44C584.269 1252.7 572.327 1254.44 579.693 1253.37L584.269 1252.7C586.003 1249.05 586.617 1244.96 586.032 1240.96L578.799 1191.4C578.603 1190.05 577.882 1188.84 576.793 1188.03C575.705 1187.22 574.339 1186.87 572.996 1187.07L512.227 1195.94Z" fill="url(#paint9_linear_66_94)"/>
</g>
<defs>
<linearGradient id="paint0_linear_66_94" x1="181.531" y1="499.85" x2="-355.684" y2="459.31" gradientUnits="userSpaceOnUse">
<stop stop-color="#226E99"/>
<stop offset="1" stop-color="#0B2533"/>
</linearGradient>
<linearGradient id="paint1_linear_66_94" x1="150.619" y1="401.711" x2="108.022" y2="321.839" gradientUnits="userSpaceOnUse">
<stop stop-color="#226E99"/>
<stop offset="1" stop-color="#0B2533"/>
</linearGradient>
<linearGradient id="paint2_linear_66_94" x1="1965.97" y1="160.171" x2="2651.38" y2="306.163" gradientUnits="userSpaceOnUse">
<stop stop-color="#226E99"/>
<stop offset="1" stop-color="#0B2533"/>
</linearGradient>
<linearGradient id="paint3_linear_66_94" x1="1988.69" y1="292.07" x2="2029.67" y2="402.459" gradientUnits="userSpaceOnUse">
<stop stop-color="#226E99"/>
<stop offset="1" stop-color="#0B2533"/>
</linearGradient>
<linearGradient id="paint4_linear_66_94" x1="1455.69" y1="-118.615" x2="1377.55" y2="577.804" gradientUnits="userSpaceOnUse">
<stop stop-color="#226E99"/>
<stop offset="1" stop-color="#0B2533"/>
</linearGradient>
<linearGradient id="paint5_linear_66_94" x1="1326.65" y1="-83.0786" x2="1220.81" y2="-31.4881" gradientUnits="userSpaceOnUse">
<stop stop-color="#226E99"/>
<stop offset="1" stop-color="#0B2533"/>
</linearGradient>
<linearGradient id="paint6_linear_66_94" x1="1034.81" y1="275.725" x2="1057.37" y2="160.159" gradientUnits="userSpaceOnUse">
<stop stop-color="#226E99"/>
<stop offset="1" stop-color="#0B2533"/>
</linearGradient>
<linearGradient id="paint7_linear_66_94" x1="2359.4" y1="1220.15" x2="2250.36" y2="1747.74" gradientUnits="userSpaceOnUse">
<stop stop-color="#226E99"/>
<stop offset="1" stop-color="#0B2533"/>
</linearGradient>
<linearGradient id="paint8_linear_66_94" x1="540.562" y1="1007.13" x2="1180.34" y2="1293.12" gradientUnits="userSpaceOnUse">
<stop stop-color="#226E99"/>
<stop offset="1" stop-color="#0B2533"/>
</linearGradient>
<linearGradient id="paint9_linear_66_94" x1="535.222" y1="1140.86" x2="552.223" y2="1257.38" gradientUnits="userSpaceOnUse">
<stop stop-color="#226E99"/>
<stop offset="1" stop-color="#0B2533"/>
</linearGradient>
<clipPath id="clip0_66_94">
<rect width="2148" height="1389" fill="white"/>
</clipPath>
</defs>
</svg>
