<svg width="1920" height="1080" viewBox="0 0 1920 1080" fill="none" xmlns="http://www.w3.org/2000/svg">
<g clip-path="url(#clip0_66_94)">
<rect width="1920" height="1080" fill="white"/>
<path d="M125.788 251.817C114.467 231.63 99.6622 213.068 81.8881 196.775L81.8649 196.751C64.0105 180.413 43.3745 166.561 20.6801 155.678C-2.6128 144.514 -27.8043 136.654 -53.9446 132.395C-57.2025 131.863 -60.549 131.894 -63.7929 132.487C-67.0369 133.08 -70.1148 134.223 -72.8508 135.851C-75.5869 137.479 -77.9277 139.56 -79.7394 141.974C-81.5511 144.389 -82.7983 147.09 -83.4098 149.924C-84.0213 152.758 -83.9851 155.669 -83.3033 158.491C-82.6215 161.313 -81.3074 163.99 -79.4361 166.37C-77.5648 168.75 -75.1729 170.787 -72.397 172.362C-69.621 173.938 -66.5154 175.023 -63.2575 175.555C-42.3852 178.965 -22.2699 185.242 -3.66665 194.153C32.7961 211.64 62.1587 238.498 80.4053 271.054C81.8574 273.646 83.8822 275.964 86.3641 277.876C88.846 279.787 91.7364 281.254 94.8703 282.194C98.0042 283.134 101.32 283.527 104.629 283.352C107.938 283.177 111.174 282.437 114.154 281.174C117.134 279.911 119.799 278.15 121.996 275.991C124.193 273.832 125.88 271.317 126.961 268.591C129.142 263.086 128.721 257.052 125.788 251.817Z" fill="url(#paint0_linear_66_94)"/>
<path d="M148.492 302.448C148.931 303.164 149.025 304.002 148.753 304.779C148.482 305.555 147.867 306.205 147.044 306.587L122.22 318.103C121.397 318.485 120.433 318.567 119.541 318.331C118.649 318.094 117.901 317.56 117.462 316.844L104.223 295.25L135.253 280.855L148.492 302.448ZM140.631 302.628L137.321 297.23L131.115 300.109L134.425 305.507L140.631 302.628ZM128.219 308.386L124.909 302.988L118.703 305.867L122.013 311.265L128.219 308.386ZM136.701 276.716C137.524 276.334 138.139 275.684 138.41 274.908C138.682 274.131 138.588 273.293 138.149 272.577L121.951 246.158C120.644 244.025 118.64 242.276 116.192 241.133L112.071 243.045C106.429 245.662 116.192 241.133 106.805 245.487C100.411 248.454 102.118 247.662 100.411 248.454L94.3933 251.246C76.9203 259.352 84.2381 255.957 90.3314 253.13C84.0826 256.029 90.3314 253.13 84.2381 255.957C76.9203 259.352 84.2381 255.957 79.7246 258.051L76.9203 259.352C76.648 261.757 77.2008 264.179 78.5089 266.311L94.707 292.731C95.1459 293.447 95.8938 293.982 96.7861 294.218C97.6783 294.454 98.642 294.372 99.4649 293.991L136.701 276.716Z" fill="url(#paint1_linear_66_94)"/>
<path d="M1776.86 306.46C1787.41 334.2 1802.77 360.375 1822.41 384.074L1822.44 384.108C1842.17 407.878 1866 428.867 1893.07 446.339C1920.85 464.266 1951.75 478.221 1984.59 487.679C1988.68 488.859 1993 489.326 1997.3 489.054C2001.6 488.782 2005.8 487.775 2009.65 486.092C2013.51 484.409 2016.94 482.083 2019.76 479.245C2022.58 476.408 2024.73 473.115 2026.09 469.554C2027.44 465.994 2027.98 462.236 2027.67 458.495C2027.36 454.755 2026.2 451.104 2024.26 447.752C2022.33 444.4 2019.65 441.412 2016.39 438.96C2013.13 436.507 2009.34 434.637 2005.25 433.457C1979.03 425.894 1954.36 414.749 1932.17 400.439C1888.67 372.364 1856.21 333.286 1839.22 288.551C1837.87 284.989 1835.72 281.694 1832.91 278.854C1830.09 276.013 1826.66 273.683 1822.81 271.996C1818.96 270.309 1814.76 269.298 1810.46 269.022C1806.16 268.745 1801.84 269.208 1797.75 270.384C1793.65 271.56 1789.87 273.426 1786.6 275.875C1783.33 278.325 1780.66 281.309 1778.72 284.659C1774.8 291.425 1774.13 299.267 1776.86 306.46Z" fill="url(#paint2_linear_66_94)"/>
<path d="M1757.75 237.749C1757.33 236.759 1757.38 235.665 1757.88 234.705C1758.39 233.746 1759.31 233.001 1760.45 232.634L1794.76 221.557C1795.9 221.189 1797.15 221.23 1798.26 221.67C1799.36 222.11 1800.22 222.913 1800.64 223.903L1813.37 253.747L1770.49 267.593L1757.75 237.749ZM1767.92 238.71L1771.11 246.171L1779.68 243.402L1776.5 235.941L1767.92 238.71ZM1785.08 233.172L1788.26 240.633L1796.84 237.863L1793.65 230.402L1785.08 233.172ZM1767.79 272.708C1766.65 273.075 1765.73 273.821 1765.22 274.78C1764.72 275.739 1764.67 276.834 1765.09 277.823L1780.67 314.338C1781.93 317.285 1784.16 319.843 1787.09 321.689L1792.79 319.85C1800.58 317.333 1787.09 321.689 1800.06 317.5C1808.9 314.647 1806.54 315.409 1808.9 314.647L1817.22 311.962C1841.37 304.165 1831.25 307.43 1822.83 310.149C1831.47 307.361 1822.83 310.149 1831.25 307.43C1841.37 304.165 1831.25 307.43 1837.49 305.416L1841.37 304.165C1842.2 301.106 1841.97 297.9 1840.71 294.953L1825.13 258.438C1824.71 257.449 1823.86 256.646 1822.75 256.206C1821.65 255.766 1820.39 255.725 1819.25 256.093L1767.79 272.708Z" fill="url(#paint3_linear_66_94)"/>
<path d="M1094.96 -57.4627C1064.26 -45.617 1035.82 -29.7556 1010.63 -10.4289L1010.59 -10.4037C985.333 9.01172 963.655 31.6902 946.318 56.8369C928.531 82.6469 915.592 110.76 907.989 140.117C907.04 143.776 906.929 147.562 907.661 151.258C908.394 154.954 909.956 158.488 912.259 161.659C914.562 164.83 917.561 167.576 921.083 169.739C924.606 171.902 928.584 173.44 932.79 174.265C936.996 175.091 941.348 175.188 945.597 174.551C949.846 173.913 953.91 172.554 957.555 170.551C961.2 168.548 964.356 165.939 966.843 162.875C969.329 159.811 971.098 156.351 972.047 152.692C978.13 129.252 988.464 106.803 1002.66 86.1892C1030.52 45.7865 1072.05 13.8563 1121.56 -5.23471C1125.5 -6.75394 1129.06 -8.93375 1132.04 -11.6497C1135.01 -14.3656 1137.34 -17.5645 1138.89 -21.0637C1140.45 -24.5628 1141.19 -28.2938 1141.09 -32.0434C1140.98 -35.7931 1140.03 -39.4881 1138.28 -42.9175C1136.54 -46.3468 1134.03 -49.4433 1130.91 -52.0302C1127.79 -54.6172 1124.11 -56.6438 1120.09 -57.9944C1111.96 -60.7222 1102.93 -60.5309 1094.96 -57.4627Z" fill="url(#paint4_linear_66_94)"/>
<path d="M1171.7 -80.7379C1172.79 -81.2003 1174.05 -81.2669 1175.2 -80.923C1176.34 -80.5792 1177.29 -79.8531 1177.82 -78.9044L1193.85 -50.289C1194.38 -49.3404 1194.46 -48.2469 1194.07 -47.2491C1193.67 -46.2513 1192.84 -45.431 1191.74 -44.9686L1158.85 -31.0208L1138.81 -66.7901L1171.7 -80.7379ZM1171.6 -71.8406L1163.37 -68.3536L1167.38 -61.1998L1175.61 -64.6867L1171.6 -71.8406ZM1179.62 -57.5329L1171.39 -54.0459L1175.4 -46.8921L1183.62 -50.379L1179.62 -57.5329ZM1132.69 -68.6235C1132.16 -69.5722 1131.21 -70.2983 1130.07 -70.6422C1128.92 -70.986 1127.66 -70.9194 1126.57 -70.457L1086.32 -53.3919C1083.08 -52.0149 1080.37 -49.8317 1078.54 -47.1177L1081.2 -42.3675C1084.85 -35.864 1078.54 -47.1177 1084.61 -36.2976C1088.74 -28.9269 1087.63 -30.8943 1088.74 -28.9269L1092.62 -21.9899C1103.91 -1.84811 1099.18 -10.2836 1095.25 -17.3076C1099.28 -10.1044 1095.25 -17.3076 1099.18 -10.2836C1103.91 -1.84811 1099.18 -10.2836 1102.1 -5.08078L1103.91 -1.84811C1107.49 -1.42632 1111.14 -1.93672 1114.38 -3.31492L1154.63 -20.38C1155.72 -20.8424 1156.56 -21.6628 1156.95 -22.6605C1157.35 -23.6583 1157.27 -24.7518 1156.74 -25.7004L1132.69 -68.6235Z" fill="url(#paint5_linear_66_94)"/>
<path d="M948.292 214.294C948.06 215.33 947.364 216.243 946.357 216.832C945.351 217.422 944.116 217.639 942.926 217.437L907.008 211.337C905.817 211.134 904.768 210.529 904.09 209.654C903.413 208.778 903.163 207.704 903.395 206.669L910.408 175.425L955.305 183.05L948.292 214.294ZM940.189 208.863L941.942 201.052L932.963 199.527L931.21 207.338L940.189 208.863ZM922.23 205.813L923.984 198.002L915.004 196.477L913.251 204.288L922.23 205.813ZM960.671 179.907C961.862 180.11 963.096 179.892 964.103 179.303C965.109 178.713 965.805 177.8 966.037 176.764L974.618 138.538C975.311 135.452 974.938 132.257 973.546 129.355L967.584 128.342C959.421 126.956 973.546 129.355 959.965 127.049C950.714 125.477 953.183 125.897 950.714 125.477L942.007 123.998C916.725 119.705 927.313 121.503 936.129 123C927.088 121.465 936.129 123 927.313 121.503C916.725 119.705 927.313 121.503 920.783 120.394L916.725 119.705C914.181 121.938 912.454 124.776 911.762 127.862L903.182 166.089C902.949 167.125 903.199 168.198 903.877 169.074C904.554 169.949 905.604 170.555 906.795 170.757L960.671 179.907Z" fill="url(#paint6_linear_66_94)"/>
<path d="M1947.67 956.051C1923.21 963.231 1890.32 967.686 1869.46 980.932C1848.55 994.241 1830.4 1011.73 1815.08 1029.92C1799.37 1048.58 1797.3 1080.39 1789.09 1102.4C1788.07 1105.14 1787.67 1108.03 1787.93 1110.91C1788.19 1113.78 1789.1 1116.58 1790.61 1119.15C1792.11 1121.72 1794.19 1124.01 1796.71 1125.88C1799.23 1127.75 1802.15 1129.18 1805.3 1130.07C1808.45 1130.96 1811.78 1131.3 1815.08 1131.07C1818.39 1130.85 1821.61 1130.05 1824.56 1128.75C1827.51 1127.44 1830.14 1125.63 1832.29 1123.44C1834.45 1121.25 1836.08 1118.71 1837.11 1115.96C1843.67 1098.4 1839.94 1065.43 1852.48 1050.52C1877.09 1021.31 1923.09 987.152 1964.39 1004.26C1967.53 1003.34 1970.44 1001.89 1972.93 999.997C1975.43 998.1 1977.47 995.795 1978.95 993.212C1980.42 990.628 1981.29 987.818 1981.52 984.941C1981.74 982.064 1981.31 979.177 1980.26 976.445C1979.2 973.712 1977.53 971.188 1975.35 969.015C1973.17 966.843 1970.52 965.066 1967.55 963.784C1961.55 961.197 1954.02 954.191 1947.67 956.051Z" fill="url(#paint7_linear_66_94)"/>
<path d="M458.621 964.543C462.269 993.587 471.002 1021.98 484.519 1048.72L484.535 1048.76C498.127 1075.59 516.381 1100.45 538.658 1122.46C561.524 1145.04 588.386 1164.3 618.23 1179.52C621.949 1181.42 626.061 1182.66 630.332 1183.17C634.603 1183.69 638.949 1183.47 643.122 1182.52C647.294 1181.58 651.212 1179.93 654.651 1177.66C658.09 1175.4 660.983 1172.57 663.165 1169.34C665.347 1166.1 666.775 1162.52 667.368 1158.81C667.961 1155.09 667.706 1151.31 666.619 1147.68C665.533 1144.05 663.634 1140.65 661.034 1137.66C658.433 1134.66 655.18 1132.15 651.461 1130.25C627.635 1118.09 606.187 1102.7 587.922 1084.68C552.132 1049.31 529.774 1005.2 523.905 958.364C523.438 954.635 522.132 951.022 520.061 947.733C517.99 944.443 515.194 941.541 511.833 939.191C508.472 936.841 504.612 935.09 500.473 934.038C496.334 932.986 491.998 932.653 487.711 933.059C483.424 933.465 479.272 934.601 475.49 936.403C471.708 938.204 468.371 940.637 465.67 943.56C460.215 949.464 457.679 957.012 458.621 964.543Z" fill="url(#paint8_linear_66_94)"/>
<path d="M456.438 893.875C456.263 892.83 456.572 891.768 457.297 890.922C458.022 890.076 459.104 889.515 460.304 889.363L496.517 884.766C497.717 884.614 498.938 884.883 499.911 885.513C500.884 886.144 501.529 887.085 501.704 888.129L506.988 919.629L461.723 925.375L456.438 893.875ZM466.152 896.663L467.473 904.538L476.526 903.389L475.205 895.514L466.152 896.663ZM484.258 894.365L485.579 902.24L494.632 901.091L493.311 893.216L484.258 894.365ZM457.857 929.887C456.656 930.039 455.574 930.6 454.849 931.446C454.124 932.292 453.815 933.354 453.991 934.399L460.456 972.939C460.977 976.05 462.545 978.958 464.964 981.294L470.975 980.531C479.205 979.487 464.964 981.294 478.656 979.556C487.984 978.372 485.494 978.688 487.984 978.372L496.763 977.258C522.252 974.023 511.577 975.378 502.688 976.506C511.804 975.349 502.688 976.506 511.577 975.378C522.252 974.023 511.577 975.378 518.161 974.542L522.252 974.023C523.802 971.182 524.35 968.006 523.827 964.895L517.362 926.355C517.187 925.311 516.542 924.37 515.569 923.739C514.597 923.108 513.376 922.84 512.175 922.992L457.857 929.887Z" fill="url(#paint9_linear_66_94)"/>
</g>
<defs>
<linearGradient id="paint0_linear_66_94" x1="162.263" y1="388.653" x2="-317.057" y2="347.071" gradientUnits="userSpaceOnUse">
<stop stop-color="#226E99"/>
<stop offset="1" stop-color="#0B2533"/>
</linearGradient>
<linearGradient id="paint1_linear_66_94" x1="134.632" y1="312.345" x2="104.18" y2="246.705" gradientUnits="userSpaceOnUse">
<stop stop-color="#226E99"/>
<stop offset="1" stop-color="#0B2533"/>
</linearGradient>
<linearGradient id="paint2_linear_66_94" x1="1757.29" y1="124.539" x2="2361.52" y2="272.492" gradientUnits="userSpaceOnUse">
<stop stop-color="#226E99"/>
<stop offset="1" stop-color="#0B2533"/>
</linearGradient>
<linearGradient id="paint3_linear_66_94" x1="1777.6" y1="227.095" x2="1806.16" y2="315.533" gradientUnits="userSpaceOnUse">
<stop stop-color="#226E99"/>
<stop offset="1" stop-color="#0B2533"/>
</linearGradient>
<linearGradient id="paint4_linear_66_94" x1="1301.18" y1="-92.2274" x2="1248.17" y2="450.907" gradientUnits="userSpaceOnUse">
<stop stop-color="#226E99"/>
<stop offset="1" stop-color="#0B2533"/>
</linearGradient>
<linearGradient id="paint5_linear_66_94" x1="1185.84" y1="-64.5967" x2="1096.73" y2="-14.6661" gradientUnits="userSpaceOnUse">
<stop stop-color="#226E99"/>
<stop offset="1" stop-color="#0B2533"/>
</linearGradient>
<linearGradient id="paint6_linear_66_94" x1="924.967" y1="214.387" x2="940.366" y2="123.72" gradientUnits="userSpaceOnUse">
<stop stop-color="#226E99"/>
<stop offset="1" stop-color="#0B2533"/>
</linearGradient>
<linearGradient id="paint7_linear_66_94" x1="2108.96" y1="948.713" x2="2034.47" y2="1363.07" gradientUnits="userSpaceOnUse">
<stop stop-color="#226E99"/>
<stop offset="1" stop-color="#0B2533"/>
</linearGradient>
<linearGradient id="paint8_linear_66_94" x1="483.184" y1="783.08" x2="1025.98" y2="1062.02" gradientUnits="userSpaceOnUse">
<stop stop-color="#226E99"/>
<stop offset="1" stop-color="#0B2533"/>
</linearGradient>
<linearGradient id="paint9_linear_66_94" x1="478.411" y1="887.064" x2="489.968" y2="978.12" gradientUnits="userSpaceOnUse">
<stop stop-color="#226E99"/>
<stop offset="1" stop-color="#0B2533"/>
</linearGradient>
<clipPath id="clip0_66_94">
<rect width="1920" height="1080" fill="white"/>
</clipPath>
</defs>
</svg>
