<svg class="svg-icon" style="width: 1em; height: 1em;vertical-align: middle;fill: currentColor;overflow: hidden;" viewBox="0 0 1024 1024" version="1.1" xmlns="http://www.w3.org/2000/svg"><path d="M541.6 336.1h183.9c1.4 0 2.5-2.3 2.5-5.3v-45.9c0-2.9-1.1-5.3-2.5-5.3H541.6c-1.4 0-2.5 2.4-2.5 5.3v45.9c0 2.9 1.1 5.3 2.5 5.3zM757.5 336.4h48.9c1.4 0 2.5-2.4 2.5-5.3v-45.9c0-2.9-1.1-5.3-2.5-5.3h-48.9c-1.4 0-2.5 2.4-2.5 5.3v45.9c0 2.9 1.1 5.3 2.5 5.3zM539.1 438.6c0 2.9 1.1 5.3 2.5 5.3h183.9c1.4 0 2.5-2.3 2.5-5.3v-45.9c0-2.9-1.1-5.3-2.5-5.3H541.6c-1.4 0-2.5 2.4-2.5 5.3v45.9zM755 438.9c0 2.9 1.1 5.3 2.5 5.3h48.9c1.4 0 2.5-2.4 2.5-5.3V393c0-2.9-1.1-5.3-2.5-5.3h-48.9c-1.4 0-2.5 2.4-2.5 5.3v45.9zM755 545.9c0 2.9 1.1 5.3 2.5 5.3h48.9c1.4 0 2.5-2.4 2.5-5.3V500c0-2.9-1.1-5.3-2.5-5.3h-48.9c-1.4 0-2.5 2.4-2.5 5.3v45.9zM539.1 545.7c0 2.9 1.1 5.3 2.5 5.3h183.9c1.4 0 2.5-2.3 2.5-5.3v-45.9c0-2.9-1.1-5.3-2.5-5.3H541.6c-1.4 0-2.5 2.4-2.5 5.3v45.9z"  /><path d="M131.6 110.1v147.5h63.6v-86.8h697.3v593H693.2v60.7h262.9V110.1z"  /><path d="M443.5 589.5c29-31 46.7-72.6 46.7-118.3 0-95.6-77.7-173.3-173.3-173.3-95.6 0-173.3 77.7-173.3 173.3 0 45.9 17.9 87.5 47.1 118.6-18.6 10.8-35.8 24.1-51.4 39.7C91.8 677 65.5 740.3 65.5 807.6c0 40.8 10.1 69.8 30.7 88.4 33.1 29.9 82.4 24.8 139.4 19 26.1-2.6 53.2-5.5 81.7-5.5s55.6 2.7 81.7 5.5c22.3 2.3 43.4 4.4 62.8 4.4 30.3 0 56.4-5.2 76.6-23.5 20.7-18.6 30.7-47.5 30.7-88.4 0-67.2-26.2-130.5-73.8-178.1-15.6-15.7-33.1-29-51.8-39.9z m-126.6-235c64.4 0 116.8 52.4 116.8 116.8S381.3 588 316.9 588s-116.8-52.4-116.8-116.8c0.1-64.4 52.5-116.7 116.8-116.7zM500.6 854c-14.5 13.1-54 9-95.8 4.8-26.3-2.6-56.1-5.7-87.4-5.7-31.4 0-61.1 3.1-87.5 5.7-41.8 4.2-81.3 8.3-95.8-4.8-7.9-7.2-12-22.8-12-46.5 0-80.9 49.6-150.5 119.9-180.1 22.7 11 48.1 17.1 75 17.1 29.2 0 56.8-7.3 81-20.1-1 1.3-2 2.7-3.2 3.9 69.3 30 117.8 99.1 117.8 179.2 0 23.6-4 39.2-12 46.5z"  /></svg>